G04 MADE WITH FRITZING*
G04 WWW.FRITZING.ORG*
G04 DOUBLE SIDED*
G04 HOLES PLATED*
G04 CONTOUR ON CENTER OF CONTOUR VECTOR*
%FSLAX26Y26*%
%MOIN*%
%ADD10C,0.068000*%
%ADD11C,0.066929*%
%ADD12C,0.067559*%
%ADD13C,0.024000*%
G04 COPPER0*
%FSLAX26Y26*%
%MOIN*%
D10*
X1471280Y1221393D03*
X1471280Y1121394D03*
X1371280Y1221393D03*
X1371280Y1121394D03*
X1271280Y1221393D03*
X1271280Y1121394D03*
D11*
X1001280Y1361393D03*
X1001280Y1261393D03*
X1001280Y1161394D03*
X1001280Y1061394D03*
D12*
X90177Y267850D03*
X168917Y267850D03*
X1035060Y267850D03*
X1113800Y267850D03*
X405137Y267850D03*
X483877Y267850D03*
X720098Y267850D03*
X798838Y267850D03*
X1153170Y858401D03*
X1153170Y779661D03*
X1153170Y543440D03*
X1153170Y464700D03*
D13*
X917754Y660396D02*
X916494Y1094540D01*
D02*
X916494Y1094540D02*
X985821Y1149205D01*
D02*
X327619Y189960D02*
X327619Y582454D01*
D02*
X366590Y621425D02*
X878783Y621425D01*
D02*
X327619Y582454D02*
X366590Y621425D01*
D02*
X878783Y621425D02*
X917754Y660396D01*
D02*
X130691Y150400D02*
X285864Y150990D01*
D02*
X285864Y150990D02*
X327619Y189960D01*
D02*
X89641Y188520D02*
X130691Y150400D01*
D02*
X90084Y254070D02*
X89641Y188520D01*
D02*
X798057Y504512D02*
X837028Y543483D01*
D02*
X798792Y281630D02*
X798057Y504512D01*
D02*
X837028Y543483D02*
X956726Y543483D01*
D02*
X956726Y543483D02*
X995697Y582454D01*
D02*
X995697Y582454D02*
X995697Y858036D01*
D02*
X995697Y858036D02*
X1034670Y897007D01*
D02*
X1034670Y897007D02*
X1073640Y897007D01*
D02*
X1073640Y897007D02*
X1112610Y935979D01*
D02*
X1112610Y935979D02*
X1112610Y1016705D01*
D02*
X1310250Y1055676D02*
X1357670Y1106738D01*
D02*
X1154370Y1055676D02*
X1310250Y1055676D01*
D02*
X1112610Y1016705D02*
X1154370Y1055676D01*
D02*
X720099Y281630D02*
X720115Y543483D01*
D02*
X1310250Y1331258D02*
X1349220Y1292287D01*
D02*
X1073640Y1292287D02*
X1112610Y1331258D01*
D02*
X1073640Y977733D02*
X1073640Y1292287D01*
D02*
X1034670Y935979D02*
X1073640Y977733D01*
D02*
X995697Y935979D02*
X1034670Y935979D01*
D02*
X956726Y897007D02*
X995697Y935979D01*
D02*
X917754Y582454D02*
X956726Y621425D01*
D02*
X956726Y621425D02*
X956726Y897007D01*
D02*
X759086Y582454D02*
X917754Y582454D01*
D02*
X720115Y543483D02*
X759086Y582454D01*
D02*
X1112610Y1331258D02*
X1310250Y1331258D01*
D02*
X1349220Y1292287D02*
X1365340Y1240490D01*
G04 End of Copper0*
M02*