; NON-PLATED HOLES START AT T1
; THROUGH (PLATED) HOLES START AT T100
M48
INCH
T1C0.125984
T100C0.015748
T101C0.027559
T102C0.040000
T103C0.039370
%
T1
X006019Y004253
T100
X000901Y000710
T101
X000901Y002678
X011531Y008584
X011531Y005434
X007988Y002678
X004838Y002678
X001689Y002678
X011531Y007796
X007200Y002678
X010350Y002678
X011531Y004647
X011138Y002678
X004051Y002678
T102
X012712Y012213
X013712Y011213
X014712Y011213
X014712Y012213
X012712Y011213
X013712Y012213
T103
X010012Y010613
X010012Y011613
X010012Y013613
X010012Y012613
T00
M30
